<svg width="732" height="595" viewBox="0 0 732 595" fill="none" xmlns="http://www.w3.org/2000/svg">
<circle cx="82.5" cy="297.5" r="297.5" fill="#A7A3FF" fill-opacity="0.83"/>
<g clip-path="url(#clip0_15_3101)">
<path d="M236.477 459.195C236.477 459.641 236.836 460 237.283 460H731.194C731.641 460 732 459.641 732 459.195C732 458.748 731.641 458.39 731.194 458.39H237.283C236.836 458.39 236.477 458.748 236.477 459.195Z" fill="#3F3D58"/>
<path d="M394.635 159.384H236.227C230.186 159.384 225.269 154.471 225.269 148.435C225.269 142.4 230.186 137.487 236.227 137.487H394.635C400.676 137.487 405.593 142.4 405.593 148.435C405.593 154.471 400.676 159.384 394.635 159.384ZM236.227 138.84C230.931 138.84 226.623 143.144 226.623 148.435C226.623 153.727 230.931 158.03 236.227 158.03H394.635C399.931 158.03 404.239 153.727 404.239 148.435C404.239 143.144 399.931 138.84 394.635 138.84H236.227Z" fill="#E2E3E4"/>
<path d="M394.635 287.508H236.227C230.368 287.508 225.607 282.751 225.607 276.898C225.607 271.045 230.368 266.288 236.227 266.288H394.635C400.493 266.288 405.254 271.045 405.254 276.898C405.254 282.751 400.493 287.508 394.635 287.508Z" fill="#6C63FF"/>
<path d="M342.724 116.22H233.619C227.761 116.22 223 111.463 223 105.61C223 99.7569 227.761 95 233.619 95H342.724C348.582 95 353.343 99.7569 353.343 105.61C353.343 111.463 348.582 116.22 342.724 116.22Z" fill="#E2E3E4"/>
<path d="M394.635 202.202H236.227C230.186 202.202 225.269 197.29 225.269 191.254C225.269 185.218 230.186 180.306 236.227 180.306H394.635C400.676 180.306 405.593 185.218 405.593 191.254C405.593 197.29 400.676 202.202 394.635 202.202ZM236.227 181.659C230.931 181.659 226.623 185.962 226.623 191.254C226.623 196.545 230.931 200.849 236.227 200.849H394.635C399.931 200.849 404.239 196.545 404.239 191.254C404.239 185.962 399.931 181.659 394.635 181.659H236.227Z" fill="#E2E3E4"/>
<path d="M394.635 245.027H236.227C230.186 245.027 225.269 240.115 225.269 234.079C225.269 228.043 230.186 223.131 236.227 223.131H394.635C400.676 223.131 405.593 228.043 405.593 234.079C405.593 240.115 400.676 245.027 394.635 245.027ZM236.227 224.484C230.931 224.484 226.623 228.788 226.623 234.079C226.623 239.371 230.931 243.674 236.227 243.674H394.635C399.931 243.674 404.239 239.371 404.239 234.079C404.239 228.788 399.931 224.484 394.635 224.484H236.227Z" fill="#E2E3E4"/>
<path d="M230.782 129.624H272.297C273.286 129.624 274.092 130.423 274.092 131.417C274.092 132.405 273.286 133.211 272.297 133.211H230.782C229.793 133.211 228.987 132.412 228.987 131.417C228.987 130.429 229.793 129.624 230.782 129.624Z" fill="#E2E3E4"/>
<path d="M230.782 173.458H272.297C273.286 173.458 274.092 174.256 274.092 175.244C274.092 176.232 273.286 177.038 272.297 177.038H230.782C229.793 177.038 228.987 176.239 228.987 175.251C228.987 174.263 229.793 173.458 230.782 173.458Z" fill="#E2E3E4"/>
<path d="M230.782 217.298H272.297C273.286 217.298 274.092 218.097 274.092 219.091C274.092 220.079 273.286 220.878 272.297 220.878H230.782C229.793 220.878 228.987 220.079 228.987 219.085C228.987 218.097 229.793 217.298 230.782 217.298Z" fill="#E2E3E4"/>
<path d="M525.785 184.494L510.641 189.474V167.693H524.383L525.785 184.494Z" fill="#9F616A"/>
<path d="M512.517 173.722C520.851 173.722 527.606 166.972 527.606 158.646C527.606 150.32 520.851 143.57 512.517 143.57C504.184 143.57 497.428 150.32 497.428 158.646C497.428 166.972 504.184 173.722 512.517 173.722Z" fill="#9F616A"/>
<path d="M516.662 157.151C514.136 157.076 512.477 154.525 511.495 152.198C510.513 149.87 509.503 147.197 507.16 146.236C505.244 145.451 501.864 150.763 500.354 149.349C498.776 147.874 500.313 140.302 501.986 138.942C503.659 137.582 505.948 137.318 508.102 137.216C513.357 136.973 518.646 137.399 523.8 138.475C526.99 139.138 530.268 140.14 532.571 142.44C535.483 145.363 536.228 149.768 536.438 153.889C536.654 158.105 536.411 162.517 534.358 166.204C532.306 169.892 528.013 172.612 523.895 171.672C523.482 169.439 523.902 167.145 524.064 164.871C524.22 162.604 524.057 160.155 522.669 158.348C521.288 156.542 518.321 155.824 516.709 157.428" fill="#2F2E43"/>
<path d="M535.225 162.374C536.736 161.271 538.544 160.344 540.4 160.574C542.404 160.818 544.104 162.469 544.619 164.425C545.134 166.38 544.558 168.532 543.312 170.129C542.072 171.726 540.223 172.781 538.273 173.309C537.142 173.613 535.903 173.742 534.826 173.282C533.241 172.599 532.381 170.575 533.004 168.965" fill="#2F2E43"/>
<path d="M477.483 304.221C476.474 309.174 478.323 313.701 481.601 314.33C484.879 314.96 488.353 311.448 489.355 306.495C489.782 304.519 489.714 302.475 489.159 300.527L501.641 222.881L486.03 219.944L480.003 298.774C478.723 300.371 477.862 302.239 477.483 304.228V304.221Z" fill="#9F616A"/>
<path d="M510.479 179.48H499.826C492.295 180.624 490.249 184.636 488.536 192.052C485.922 203.366 482.583 218.428 483.247 218.652C484.31 219.004 502.447 227.529 511.691 225.581L510.479 179.48Z" fill="#E2E3E4"/>
<path d="M520.78 426.803H506.598V446.907H520.78V426.803Z" fill="#9F616A"/>
<path d="M492.789 459.073C491.299 459.073 489.972 459.039 488.969 458.945C485.204 458.599 481.608 455.818 479.799 454.195C478.987 453.464 478.729 452.3 479.149 451.298C479.454 450.581 480.057 450.04 480.809 449.83L490.764 446.988L506.883 436.121L507.065 436.446C507.133 436.568 508.718 439.416 509.246 441.338C509.449 442.069 509.395 442.678 509.09 443.152C508.88 443.476 508.582 443.666 508.345 443.774C508.637 444.079 509.551 444.701 512.368 445.148C516.479 445.797 517.346 441.541 517.38 441.365L517.407 441.223L517.529 441.142C519.486 439.883 520.692 439.308 521.105 439.43C521.362 439.504 521.796 439.64 522.967 451.231C523.082 451.596 523.902 454.262 523.347 456.813C522.744 459.587 510.607 458.633 508.176 458.417C508.108 458.424 499.02 459.073 492.796 459.073H492.789Z" fill="#2F2E43"/>
<path d="M561.161 411.009L549.128 418.507L559.776 435.565L571.809 428.067L561.161 411.009Z" fill="#9F616A"/>
<path d="M545.181 456.319C543.515 456.319 541.984 456.116 540.894 455.927C539.824 455.737 538.984 454.885 538.808 453.816C538.686 453.044 538.91 452.266 539.438 451.691L546.38 444.018L554.304 426.276L554.629 426.452C554.751 426.519 557.602 428.096 559.071 429.449C559.634 429.964 559.911 430.512 559.898 431.073C559.891 431.466 559.742 431.777 559.593 432C559.999 432.109 561.103 432.149 563.731 431.039C567.564 429.422 566.047 425.349 565.979 425.18L565.925 425.044L565.986 424.916C566.982 422.811 567.693 421.688 568.113 421.573C568.377 421.499 568.81 421.384 575.942 430.606C576.233 430.85 578.339 432.684 579.22 435.14C580.174 437.813 569.372 443.422 567.198 444.518C567.131 444.573 555.827 452.78 551.181 455.115C549.339 456.042 547.159 456.326 545.174 456.326L545.181 456.319Z" fill="#2F2E43"/>
<path d="M531.223 258.689H491.516L487.913 295.594L503.679 431.953H523.949L515.843 353.197L548.723 424.3L566.738 411.701L541.063 345.321C541.063 345.321 550.233 287.494 543.027 273.088C535.821 258.689 531.223 258.689 531.223 258.689Z" fill="#2F2E43"/>
<path d="M550.978 260.936H487.913L506.835 179.48H534.311L550.978 260.936Z" fill="#E2E3E4"/>
<path d="M556.654 304.221C557.663 309.174 555.814 313.701 552.536 314.33C549.258 314.96 545.784 311.448 544.781 306.495C544.355 304.519 544.422 302.475 544.978 300.527L532.496 222.881L548.107 219.944L554.134 298.774C555.414 300.371 556.274 302.239 556.654 304.228V304.221Z" fill="#9F616A"/>
<path d="M523.658 179.48H534.311C541.842 180.624 543.888 184.636 545.601 192.052C548.215 203.366 551.554 218.428 550.89 218.652C549.827 219.004 531.69 227.529 522.446 225.581L523.658 179.48Z" fill="#E2E3E4"/>
</g>
<defs>
<clipPath id="clip0_15_3101">
<rect width="509" height="365" fill="white" transform="translate(223 95)"/>
</clipPath>
</defs>
</svg>
